<mxfile host="app.diagrams.net" modified="2024-07-04T08:22:20.937Z" agent="Mozilla/5.0 (Macintosh; Intel Mac OS X 10_15_7) AppleWebKit/537.36 (KHTML, like Gecko) Chrome/126.0.0.0 Safari/537.36" etag="pHwhumnpbVCZZe022eH9" version="24.6.4" type="github">
  <diagram name="第 1 页" id="XOmmnfKYFjAbBX7tatrX">
    <mxGraphModel dx="1434" dy="761" grid="1" gridSize="10" guides="1" tooltips="1" connect="1" arrows="1" fold="1" page="1" pageScale="1" pageWidth="827" pageHeight="1169" math="0" shadow="0">
      <root>
        <mxCell id="0" />
        <mxCell id="1" parent="0" />
        <mxCell id="s0dmGgXDx67_2dqfB7EI-1" value="&lt;font face=&quot;Comic Sans MS&quot;&gt;&lt;span style=&quot;font-size: 18px;&quot;&gt;before commit → before apply&lt;/span&gt;&lt;/font&gt;" style="rounded=1;whiteSpace=wrap;html=1;fillColor=#7FC2C7;" vertex="1" parent="1">
          <mxGeometry x="180" y="320" width="330" height="30" as="geometry" />
        </mxCell>
        <mxCell id="s0dmGgXDx67_2dqfB7EI-3" value="&lt;font style=&quot;font-size: 14px;&quot; face=&quot;Comic Sans MS&quot;&gt;send client → paxos&lt;/font&gt;" style="rounded=1;whiteSpace=wrap;html=1;fillColor=#FF8F8F;" vertex="1" parent="1">
          <mxGeometry x="180" y="360" width="270" height="30" as="geometry" />
        </mxCell>
        <mxCell id="s0dmGgXDx67_2dqfB7EI-4" value="&lt;font face=&quot;Comic Sans MS&quot;&gt;&lt;span style=&quot;font-size: 14px;&quot;&gt;paxos&lt;/span&gt;&lt;/font&gt;" style="rounded=1;whiteSpace=wrap;html=1;fillColor=#7AFF99;" vertex="1" parent="1">
          <mxGeometry x="450" y="360" width="60" height="30" as="geometry" />
        </mxCell>
        <mxCell id="s0dmGgXDx67_2dqfB7EI-7" value="&lt;font style=&quot;font-size: 11px;&quot; face=&quot;Comic Sans MS&quot;&gt;certify&lt;/font&gt;" style="rounded=1;whiteSpace=wrap;html=1;fillColor=#CF5B7A;" vertex="1" parent="1">
          <mxGeometry x="580" y="360" width="40" height="30" as="geometry" />
        </mxCell>
        <mxCell id="s0dmGgXDx67_2dqfB7EI-8" value="&lt;font style=&quot;font-size: 18px;&quot; face=&quot;Comic Sans MS&quot;&gt;before_commit&lt;/font&gt;" style="rounded=1;whiteSpace=wrap;html=1;fillColor=#8293FF;" vertex="1" parent="1">
          <mxGeometry x="180" y="280" width="450" height="30" as="geometry" />
        </mxCell>
        <mxCell id="s0dmGgXDx67_2dqfB7EI-9" value="&lt;font face=&quot;Comic Sans MS&quot;&gt;&lt;span style=&quot;font-size: 14px;&quot;&gt;paxos-&amp;gt;apply&lt;/span&gt;&lt;/font&gt;" style="rounded=1;whiteSpace=wrap;html=1;fillColor=#FFE282;" vertex="1" parent="1">
          <mxGeometry x="510" y="320" width="120" height="30" as="geometry" />
        </mxCell>
      </root>
    </mxGraphModel>
  </diagram>
</mxfile>
